<svg width="14" height="14" viewBox="0 0 14 14" fill="none" xmlns="http://www.w3.org/2000/svg">
<g clip-path="url(#clip0_0_64)">
<path d="M4.04833 2.91676C4.04818 3.22618 3.92511 3.52287 3.70621 3.74155C3.48731 3.96023 3.1905 4.083 2.88108 4.08285C2.57166 4.08269 2.27498 3.95963 2.05629 3.74072C1.83761 3.52182 1.71484 3.22501 1.715 2.9156C1.71515 2.60618 1.83822 2.30949 2.05712 2.09081C2.27602 1.87213 2.57283 1.74936 2.88225 1.74951C3.19167 1.74967 3.48835 1.87273 3.70703 2.09163C3.92572 2.31053 4.04848 2.60734 4.04833 2.91676ZM4.08333 4.94676H1.75V12.2501H4.08333V4.94676ZM7.77 4.94676H5.44833V12.2501H7.74666V8.4176C7.74666 6.2826 10.5292 6.08426 10.5292 8.4176V12.2501H12.8333V7.62426C12.8333 4.0251 8.715 4.15926 7.74666 5.92676L7.77 4.94676Z" fill="#2B2B2B"/>
</g>
<defs>
<clipPath id="clip0_0_64">
<rect width="14" height="14" fill="white"/>
</clipPath>
</defs>
</svg>
