<svg width="19" height="18" viewBox="0 0 19 18" fill="none" xmlns="http://www.w3.org/2000/svg">
<g clip-path="url(#clip0_0_223)">
<path d="M18 4.28699V4.5H12.5V0H12.7603C13.0338 0 13.2962 0.0889101 13.4896 0.247113L17.698 3.69035C17.8913 3.8486 18 4.06321 18 4.28699ZM12.1562 5.625C11.5891 5.625 11.125 5.24531 11.125 4.78125V0H2.53125C1.9617 0 1.5 0.377754 1.5 0.84375V17.1562C1.5 17.6222 1.9617 18 2.53125 18H16.9688C17.5383 18 18 17.6222 18 17.1562V5.625H12.1562ZM6.79401 14.0803C6.77317 14.0984 6.74815 14.1131 6.72039 14.1234C6.69263 14.1337 6.66266 14.1394 6.63221 14.1402C6.60175 14.141 6.5714 14.1368 6.54289 14.1281C6.51437 14.1193 6.48826 14.106 6.46603 14.0889L3.67882 11.951C3.65567 11.9332 3.63722 11.9118 3.6246 11.888C3.61199 11.8641 3.60548 11.8384 3.60548 11.8125C3.60548 11.7865 3.61199 11.7608 3.6246 11.737C3.63722 11.7132 3.65567 11.6917 3.67882 11.674L6.46603 9.53606C6.48826 9.51901 6.51437 9.50571 6.54289 9.49691C6.5714 9.48812 6.60175 9.484 6.63221 9.48481C6.66266 9.48561 6.69263 9.49131 6.72039 9.50159C6.74815 9.51187 6.77317 9.52652 6.79401 9.54471L7.63529 10.2789C7.65655 10.2975 7.67304 10.3194 7.68377 10.3432C7.69451 10.3671 7.69927 10.3925 7.69778 10.4179C7.69629 10.4433 7.68858 10.4682 7.6751 10.4911C7.66161 10.514 7.64264 10.5345 7.61931 10.5513L5.86777 11.8125L7.61931 13.0737C7.64264 13.0905 7.66161 13.111 7.6751 13.1339C7.68858 13.1568 7.69629 13.1817 7.69778 13.2071C7.69927 13.2325 7.69451 13.2579 7.68377 13.2818C7.67304 13.3056 7.65655 13.3275 7.63529 13.3461L6.79401 14.0803ZM8.99809 15.8549L7.81847 15.5747C7.75937 15.5607 7.70951 15.528 7.67985 15.4839C7.65019 15.4398 7.64316 15.3878 7.6603 15.3394L10.3003 7.89947C10.3175 7.85112 10.3574 7.81032 10.4113 7.78606C10.4653 7.76179 10.5287 7.75603 10.5878 7.77006L11.7674 8.05025C11.7967 8.05721 11.824 8.06881 11.8478 8.08439C11.8716 8.09998 11.8914 8.11924 11.906 8.14109C11.9207 8.16294 11.93 8.18694 11.9334 8.21172C11.9367 8.2365 11.934 8.26158 11.9256 8.28552L9.28555 15.7255C9.27707 15.7494 9.26291 15.7718 9.24387 15.7913C9.22483 15.8107 9.20129 15.8269 9.1746 15.8389C9.1479 15.851 9.11857 15.8586 9.08829 15.8613C9.058 15.864 9.02735 15.8619 8.99809 15.8549ZM15.9071 11.951L13.1199 14.0889C13.0977 14.106 13.0716 14.1193 13.0431 14.1281C13.0145 14.1368 12.9842 14.141 12.9537 14.1402C12.9233 14.1394 12.8933 14.1337 12.8655 14.1234C12.8378 14.1131 12.8128 14.0984 12.7919 14.0803L11.9506 13.346C11.9293 13.3275 11.9129 13.3056 11.9021 13.2817C11.8914 13.2579 11.8866 13.2325 11.8881 13.2071C11.8896 13.1817 11.8973 13.1568 11.9108 13.1338C11.9243 13.1109 11.9433 13.0905 11.9666 13.0737L13.7182 11.8125L11.9666 10.5513C11.9433 10.5345 11.9243 10.514 11.9108 10.4911C11.8974 10.4682 11.8896 10.4433 11.8882 10.4179C11.8867 10.3925 11.8914 10.3671 11.9022 10.3432C11.9129 10.3194 11.9294 10.2975 11.9506 10.2789L12.792 9.54471C12.8128 9.52652 12.8378 9.51187 12.8656 9.50159C12.8934 9.49131 12.9233 9.48561 12.9538 9.48481C12.9842 9.484 13.0146 9.48812 13.0431 9.49691C13.0716 9.50571 13.0977 9.51901 13.12 9.53606L15.9072 11.674C15.9303 11.6917 15.9488 11.7132 15.9614 11.737C15.974 11.7608 15.9805 11.7865 15.9805 11.8125C15.9805 11.8385 15.974 11.8641 15.9613 11.888C15.9487 11.9118 15.9303 11.9332 15.9071 11.951Z" fill="#767676"/>
</g>
<defs>
<clipPath id="clip0_0_223">
<rect width="16.5" height="18" fill="white" transform="translate(1.5)"/>
</clipPath>
</defs>
</svg>
