<svg width="19" height="18" viewBox="0 0 19 18" fill="none" xmlns="http://www.w3.org/2000/svg">
<g clip-path="url(#clip0_0_230)">
<path d="M13.2636 11.272L9.75 14.6259L6.23638 11.272C3.60301 11.381 1.5 13.4376 1.5 15.9759V16.3134C1.5 17.245 2.29185 18.0009 3.26786 18.0009H16.2321C17.2081 18.0009 18 17.245 18 16.3134V15.9759C18 13.4376 15.897 11.381 13.2636 11.272ZM2.00089 2.80635L2.23661 2.85909V4.91221C1.97879 5.05987 1.79464 5.31651 1.79464 5.62589C1.79464 5.9212 1.96406 6.16729 2.20346 6.31846L1.62891 8.5087C1.56629 8.75128 1.70625 9.00089 1.90882 9.00089H3.44833C3.65089 9.00089 3.79085 8.75128 3.72824 8.5087L3.15368 6.31846C3.39308 6.16729 3.5625 5.9212 3.5625 5.62589C3.5625 5.31651 3.37835 5.05987 3.12054 4.91221V3.06299L5.55134 3.62198C5.2346 4.22667 5.03571 4.90167 5.03571 5.62589C5.03571 8.11143 7.14609 10.1259 9.75 10.1259C12.3539 10.1259 14.4643 8.11143 14.4643 5.62589C14.4643 4.90167 14.2691 4.22667 13.9487 3.62198L17.4954 2.80635C18.1657 2.65166 18.1657 1.85362 17.4954 1.69893L10.4829 0.0817384C10.0041 -0.0272461 9.49955 -0.0272461 9.02076 0.0817384L2.00089 1.69541C1.33426 1.8501 1.33426 2.65166 2.00089 2.80635Z" fill="#767676"/>
</g>
<defs>
<clipPath id="clip0_0_230">
<rect width="18" height="18" fill="white" transform="translate(0.5)"/>
</clipPath>
</defs>
</svg>
