<svg width="36" height="24" viewBox="0 0 36 24" fill="none" xmlns="http://www.w3.org/2000/svg">
<g clip-path="url(#clip0_0_529)">
<path d="M17.8144 2C26.0091 2 32.6598 6.48 32.6598 12C32.6598 17.52 26.0091 22 17.8144 22C9.61978 22 2.96906 17.52 2.96906 12C2.96906 6.48 9.61978 2 17.8144 2ZM17.8144 4C11.2528 4 5.93813 7.58 5.93813 12C5.93813 16.42 11.2528 20 17.8144 20C24.3761 20 29.6907 16.42 29.6907 12C29.6907 7.58 24.3761 4 17.8144 4ZM17.8144 7C20.5163 7 22.8811 7.973 24.1801 9.428L21.6356 10.457C21.2352 10.0072 20.6667 9.63605 19.9869 9.38045C19.3071 9.12484 18.5396 8.99374 17.7611 9.00023C16.9827 9.00672 16.2203 9.15056 15.5501 9.41742C14.8798 9.68428 14.3252 10.0648 13.9414 10.5211C13.5576 10.9774 13.3581 11.4935 13.3627 12.0179C13.3674 12.5424 13.576 13.0568 13.9679 13.51C14.3598 13.9632 14.9212 14.3392 15.5961 14.6007C16.271 14.8621 17.0359 14.9998 17.8144 15C18.5836 15.0003 19.3398 14.8664 20.0092 14.6112C20.6787 14.356 21.2385 13.9883 21.6341 13.544L24.1801 14.572C23.3458 15.5106 22.0775 16.239 20.5696 16.6453C19.0617 17.0517 17.3976 17.1137 15.8324 16.8217C14.2672 16.5298 12.8875 15.9 11.9047 15.029C10.9219 14.1581 10.3904 13.094 10.3917 12C10.3917 9.24 13.7171 7 17.8144 7Z" fill="white"/>
</g>
<defs>
<clipPath id="clip0_0_529">
<rect width="35.6289" height="24" fill="white"/>
</clipPath>
</defs>
</svg>
