<svg width="14" height="14" viewBox="0 0 14 14" fill="none" xmlns="http://www.w3.org/2000/svg">
<g clip-path="url(#clip0_0_71)">
<path d="M12.5667 3.79042C12.8333 4.82992 12.8333 6.99992 12.8333 6.99992C12.8333 6.99992 12.8333 9.16992 12.5667 10.2094C12.4186 10.784 11.9852 11.2361 11.4362 11.3889C10.4393 11.6666 6.99999 11.6666 6.99999 11.6666C6.99999 11.6666 3.56241 11.6666 2.56374 11.3889C2.01249 11.2338 1.57966 10.7823 1.43324 10.2094C1.16666 9.16992 1.16666 6.99992 1.16666 6.99992C1.16666 6.99992 1.16666 4.82992 1.43324 3.79042C1.58141 3.21584 2.01482 2.76375 2.56374 2.61092C3.56241 2.33325 6.99999 2.33325 6.99999 2.33325C6.99999 2.33325 10.4393 2.33325 11.4362 2.61092C11.9875 2.76609 12.4203 3.21759 12.5667 3.79042ZM5.83332 9.04158L9.33332 6.99992L5.83332 4.95825V9.04158Z" fill="#2B2B2B"/>
</g>
<defs>
<clipPath id="clip0_0_71">
<rect width="14" height="14" fill="white"/>
</clipPath>
</defs>
</svg>
