<svg width="19" height="18" viewBox="0 0 19 18" fill="none" xmlns="http://www.w3.org/2000/svg">
<g clip-path="url(#clip0_0_236)">
<path d="M7.25 9.75V12H11.75V9.75H17V15C17 15.1989 16.921 15.3897 16.7803 15.5303C16.6397 15.671 16.4489 15.75 16.25 15.75H2.75C2.55109 15.75 2.36032 15.671 2.21967 15.5303C2.07902 15.3897 2 15.1989 2 15V9.75H7.25ZM8.75 8.25H10.25V10.5H8.75V8.25ZM5.75 3.75V1.5C5.75 1.30109 5.82902 1.11032 5.96967 0.96967C6.11032 0.829018 6.30109 0.75 6.5 0.75H12.5C12.6989 0.75 12.8897 0.829018 13.0303 0.96967C13.171 1.11032 13.25 1.30109 13.25 1.5V3.75H16.25C16.4489 3.75 16.6397 3.82902 16.7803 3.96967C16.921 4.11032 17 4.30109 17 4.5V8.25H11.75V6.75H7.25V8.25H2V4.5C2 4.30109 2.07902 4.11032 2.21967 3.96967C2.36032 3.82902 2.55109 3.75 2.75 3.75H5.75ZM7.25 2.25V3.75H11.75V2.25H7.25Z" fill="#767676"/>
</g>
<defs>
<clipPath id="clip0_0_236">
<rect width="18" height="18" fill="white" transform="translate(0.5)"/>
</clipPath>
</defs>
</svg>
