<svg width="130" height="13" viewBox="0 0 130 13" fill="none" xmlns="http://www.w3.org/2000/svg">
<path d="M9 9.81224L12.9107 9.13029L14.5446 12.5954L9 9.81224ZM18 5.33343H11.1161L9 0.873047L6.88393 5.33343H0L5.57143 8.09813L3.45535 12.5585L9.02679 9.79381L12.4554 8.09813L18 5.33343Z" fill="#FFB400"/>
<path d="M37 9.81224L40.9107 9.13029L42.5446 12.5954L37 9.81224ZM46 5.33343H39.1161L37 0.873047L34.8839 5.33343H28L33.5714 8.09813L31.4554 12.5585L37.0268 9.79381L40.4554 8.09813L46 5.33343Z" fill="#FFB400"/>
<path d="M65 9.81224L68.9107 9.13029L70.5446 12.5954L65 9.81224ZM74 5.33343H67.1161L65 0.873047L62.8839 5.33343H56L61.5714 8.09813L59.4554 12.5585L65.0268 9.79381L68.4554 8.09813L74 5.33343Z" fill="#FFB400"/>
<path d="M93 9.81224L96.9107 9.13029L98.5446 12.5954L93 9.81224ZM102 5.33343H95.1161L93 0.873047L90.8839 5.33343H84L89.5714 8.09813L87.4554 12.5585L93.0268 9.79381L96.4554 8.09813L102 5.33343Z" fill="#FFB400"/>
<path d="M121 9.81224L124.911 9.13029L126.545 12.5954L121 9.81224ZM130 5.33343H123.116L121 0.873047L118.884 5.33343H112L117.571 8.09813L115.455 12.5585L121.027 9.79381L124.455 8.09813L130 5.33343Z" fill="#FFB400"/>
</svg>
